<svg width="78" height="213" viewBox="0 0 78 213" fill="none" xmlns="http://www.w3.org/2000/svg">
<g id="Clip path group">
<mask id="mask0_9_11" style="mask-type:luminance" maskUnits="userSpaceOnUse" x="0" y="0" width="78" height="213">
<g id="75b2d44093">
<path id="Vector" d="M0 0H78V213H0V0Z" fill="#91A56E"/>
</g>
</mask>
<g mask="url(#mask0_9_11)">
<g id="Group">
<path id="Vector_2" d="M50.0563 92.6252C50.0563 92.459 50.0563 92.2724 50.1999 92.1063C52.3502 86.2731 55.7018 80.831 60.2476 75.7851C61.0986 74.7473 61.9777 73.7095 62.9127 72.6104C65.5814 69.6248 75.8847 57.9073 76.7077 52.0997C78.6935 38.5137 75.0617 13.1694 73.8675 3.73456V3.29745C73.8675 3.08273 73.836 2.87057 73.7799 2.65841C73.7204 2.44881 73.6328 2.24176 73.5208 2.04493C73.4087 1.84555 73.2686 1.65639 73.1075 1.47746C72.9429 1.29853 72.7573 1.13238 72.5507 0.979011C72.3405 0.825641 72.1164 0.690164 71.8712 0.570025C71.6261 0.449885 71.3704 0.347638 71.0973 0.263285C70.8276 0.178932 70.5474 0.115027 70.2603 0.0715726C69.9696 0.025562 69.6789 0.00255665 69.3847 0H66.7161L66.1487 0.145701L65.9211 0.270953C65.5043 0.388537 65.1226 0.549575 64.7689 0.754068C64.4187 0.956005 64.1175 1.19373 63.8653 1.46468C63.6097 1.73308 63.417 2.02448 63.284 2.33889C63.1509 2.65074 63.0843 2.97026 63.0843 3.29745V52.3068C63.0633 52.5113 63.0143 52.7132 62.9408 52.9126C62.8672 53.1094 62.7691 53.3011 62.6466 53.4852C62.524 53.6718 62.3769 53.8456 62.2088 54.0117C62.0407 54.1753 61.8551 54.3287 61.6485 54.4667C61.4418 54.6073 61.2177 54.7326 60.9795 54.8399C60.7414 54.9499 60.4927 55.0419 60.2301 55.116C59.9674 55.1901 59.6978 55.2489 59.4211 55.2847C59.1479 55.3231 58.8677 55.3435 58.5876 55.3435C58.3039 55.3435 58.0272 55.3231 57.7506 55.2847C57.4739 55.2489 57.2042 55.1901 56.9416 55.116C56.6789 55.0419 56.4302 54.9499 56.1921 54.8399C55.954 54.7326 55.7298 54.6073 55.5232 54.4667C55.3166 54.3287 55.131 54.1753 54.9628 54.0117C54.7947 53.8456 54.6512 53.6718 54.5286 53.4852C54.406 53.3011 54.3044 53.1094 54.2309 52.9126C54.1573 52.7132 54.1118 52.5113 54.0873 52.3068V3.29745C54.0873 3.08529 54.0593 2.87313 54.0033 2.66352C53.9472 2.45647 53.8667 2.25198 53.7546 2.05516C53.646 1.85833 53.5095 1.66917 53.3519 1.49024C53.1908 1.31387 53.0086 1.14772 52.8055 0.994348C52.6024 0.843535 52.3818 0.705501 52.1401 0.585362C51.902 0.462666 51.6498 0.360419 51.3801 0.276066C51.114 0.189156 50.8373 0.122696 50.5536 0.0766849C50.27 0.0306736 49.9793 0.00511265 49.6886 0H47.9866C47.6889 0 47.3947 0.0178933 47.1005 0.0613479C46.8098 0.102247 46.5262 0.163594 46.2495 0.245392C45.9763 0.327189 45.7137 0.429435 45.465 0.549575C45.2163 0.669715 44.9887 0.805192 44.7786 0.958561C44.5649 1.11193 44.3793 1.27808 44.2112 1.45957C44.0466 1.64106 43.9065 1.83021 43.791 2.03215C43.6789 2.23153 43.5913 2.43858 43.5318 2.6533C43.4758 2.86546 43.4443 3.08018 43.4443 3.29745V52.3068C43.4443 52.5215 43.4162 52.7362 43.3602 52.9458C43.3007 53.158 43.2166 53.3625 43.1045 53.5619C42.9925 53.7587 42.8524 53.9478 42.6913 54.1268C42.5267 54.3057 42.3411 54.4719 42.131 54.6227C41.9243 54.776 41.6967 54.9115 41.4515 55.0317C41.2064 55.1518 40.9507 55.2515 40.6776 55.3333C40.4044 55.4176 40.1242 55.479 39.837 55.5199C39.5464 55.5633 39.2557 55.5838 38.9615 55.5838C38.6673 55.5838 38.3766 55.5633 38.086 55.5199C37.7988 55.479 37.5186 55.4176 37.2454 55.3333C36.9723 55.2515 36.7166 55.1518 36.4715 55.0317C36.2263 54.9115 35.9987 54.776 35.792 54.6227C35.5819 54.4719 35.3963 54.3057 35.2317 54.1268C35.0706 53.9478 34.9305 53.7587 34.8185 53.5619C34.7064 53.3625 34.6223 53.158 34.5628 52.9458C34.5068 52.7362 34.4787 52.5215 34.4787 52.3068V3.29745C34.4787 3.08018 34.4472 2.86546 34.3912 2.6533C34.3316 2.43858 34.2441 2.23153 34.132 2.03215C34.0165 1.83021 33.8764 1.64106 33.7118 1.45957C33.5437 1.27808 33.3581 1.11193 33.1444 0.958561C32.9343 0.805192 32.7066 0.669715 32.458 0.549575C32.2093 0.429435 31.9467 0.327189 31.6735 0.245392C31.3968 0.163594 31.1132 0.102247 30.8225 0.0613479C30.5283 0.0178933 30.2341 0 29.9364 0H28.2344C27.9367 0 27.646 0.0204488 27.3554 0.0639041C27.0647 0.107359 26.7845 0.168707 26.5113 0.25306C26.2382 0.334857 25.979 0.437104 25.7339 0.557244C25.4887 0.677384 25.2611 0.815416 25.0544 0.96623C24.8443 1.1196 24.6587 1.28831 24.4941 1.46724C24.333 1.64873 24.1929 1.83788 24.0843 2.03726C23.9723 2.23664 23.8882 2.44369 23.8322 2.65585C23.7762 2.86802 23.7481 3.08273 23.7481 3.29745V52.3068C23.7271 52.5113 23.6781 52.7132 23.6045 52.9126C23.531 53.1094 23.4329 53.3011 23.3104 53.4852C23.1878 53.6718 23.0407 53.8456 22.8726 54.0117C22.708 54.1753 22.5189 54.3287 22.3123 54.4667C22.1056 54.6073 21.885 54.7326 21.6468 54.8399C21.4087 54.9499 21.1565 55.0419 20.8939 55.116C20.6347 55.1901 20.3651 55.2489 20.0884 55.2847C19.8117 55.3231 19.5315 55.3435 19.2514 55.3435C18.9712 55.3435 18.691 55.3231 18.4144 55.2847C18.1377 55.2489 17.868 55.1901 17.6089 55.116C17.3462 55.0419 17.094 54.9499 16.8559 54.8399C16.6178 54.7326 16.3971 54.6073 16.1905 54.4667C15.9839 54.3287 15.7947 54.1753 15.6266 54.0117C15.462 53.8456 15.3149 53.6718 15.1924 53.4852C15.0698 53.3011 14.9717 53.1094 14.8982 52.9126C14.8246 52.7132 14.7756 52.5113 14.7546 52.3068V3.29745C14.7581 2.97282 14.6951 2.65585 14.569 2.34656C14.4429 2.03471 14.2573 1.74586 14.0121 1.47491C13.767 1.20395 13.4728 0.96623 13.1296 0.761737C12.7864 0.557244 12.4117 0.393649 11.9984 0.270953H11.8303L11.2069 0H8.51026C8.21258 0 7.9184 0.0204488 7.62772 0.0639041C7.33704 0.104803 7.05687 0.168707 6.7837 0.250504C6.50703 0.334857 6.24787 0.437104 6.00272 0.557244C5.75757 0.677384 5.52643 0.81286 5.3198 0.96623C5.10967 1.1196 4.92055 1.28575 4.75595 1.46724C4.59135 1.64617 4.45477 1.83533 4.3392 2.03726C4.22713 2.23664 4.14308 2.44114 4.08354 2.65585C4.024 2.86802 3.99598 3.08273 3.99598 3.29745V3.73456C2.8893 13.1694 -0.742431 38.5137 1.21527 52.0997C2.0663 57.9073 12.3416 69.6248 15.0383 72.6104C15.9734 73.7095 16.8524 74.686 17.7034 75.7851C22.2282 80.8361 25.5693 86.2782 27.7231 92.1063C27.7231 92.2724 27.7231 92.459 27.8632 92.6252C28.0068 92.7913 28.1188 93.4968 28.2344 93.9518C29.0819 97.8321 29.222 101.723 28.6582 105.628C26.8721 119.961 21.5068 151.941 21.083 183.924C20.7118 210.886 33.7398 212.959 37.7708 212.959C38.1665 212.974 38.5623 212.974 38.9615 212.959C39.3572 212.977 39.7565 212.977 40.1522 212.959C44.1552 212.959 57.1797 210.886 56.84 183.924C56.4162 151.941 51.1665 119.961 49.2648 105.628C48.701 101.723 48.8411 97.8321 49.6886 93.9518C49.8042 93.4968 49.9162 93.0597 50.0563 92.6252Z" fill="#FBFEFB"/>
</g>
</g>
</g>
</svg>
